<svg width="41" height="38" viewBox="0 0 41 38" fill="none" xmlns="http://www.w3.org/2000/svg">
<path opacity="0.5" d="M40.0653 0.256712L30.2603 34.9914C30.2104 35.149 30.011 35.1963 29.8947 35.086L23.3303 28.858L28.2494 11.4513C28.2993 11.2936 28.1497 11.1517 27.9835 11.199L9.63652 15.866L3.10539 9.6696C2.98906 9.55923 3.03892 9.37003 3.2051 9.32273L39.7994 0.00444018C39.9656 -0.0270938 40.1151 0.114809 40.0653 0.256712Z" fill="#00B37E"/>
<path opacity="0.5" d="M23.3295 28.8577L20.8035 37.8449C20.7536 38.0026 20.5542 38.0499 20.4379 37.9395L0.0633997 18.6249C-0.0529309 18.5146 -0.00307515 18.3254 0.163111 18.2781L9.63574 15.8657L23.3295 28.8577Z" fill="#00B37E"/>
<path d="M28.2477 11.451L23.3285 28.8577L9.63477 15.8657L27.9818 11.1987C28.1479 11.1514 28.2975 11.2933 28.2477 11.451Z" fill="#00B37E"/>
</svg>
